<?xml version="1.0" standalone="no"?><!DOCTYPE svg PUBLIC "-//W3C//DTD SVG 1.1//EN" "http://www.w3.org/Graphics/SVG/1.1/DTD/svg11.dtd"><svg t="1551583353761" class="icon" style="" viewBox="0 0 1024 1024" version="1.1" xmlns="http://www.w3.org/2000/svg" p-id="9323" xmlns:xlink="http://www.w3.org/1999/xlink" width="200" height="200"><defs><style type="text/css"></style></defs><path d="M740.932267 1011.780267c-13.329067 13.329067-34.935467 13.329067-48.264533 0l-458.581333-458.581333c-13.329067-13.329067-13.329067-34.935467 0-48.264533l0 0c13.329067-13.329067 34.935467-13.329067 48.264533 0l458.581333 458.581333C754.261333 976.8448 754.261333 998.4512 740.932267 1011.780267L740.932267 1011.780267z" p-id="9324"></path><path d="M740.932267 46.353067c13.329067 13.329067 13.329067 34.935467 0 48.264533l-458.581333 458.581333c-13.329067 13.329067-34.935467 13.329067-48.264533 0l0 0c-13.329067-13.329067-13.329067-34.935467 0-48.264533l458.581333-458.581333C705.9968 33.024 727.6032 33.024 740.932267 46.353067L740.932267 46.353067z" p-id="9325"></path></svg>