<?xml version="1.0" standalone="no"?><!DOCTYPE svg PUBLIC "-//W3C//DTD SVG 1.1//EN" "http://www.w3.org/Graphics/SVG/1.1/DTD/svg11.dtd"><svg t="1551582800708" class="icon" style="" viewBox="0 0 1024 1024" version="1.1" xmlns="http://www.w3.org/2000/svg" p-id="2641" xmlns:xlink="http://www.w3.org/1999/xlink" width="200" height="200"><defs><style type="text/css"></style></defs><path d="M269.77 338.228c11.668 11.669 30.76 11.669 42.428 0l170.8-170.813v592.133c0 16.5 13.5 30 30 30s30-13.5 30-30V167.411l170.804 170.816c11.668 11.669 30.76 11.669 42.428 0l0.002-0.002c11.666-11.667 11.666-30.758 0-42.425L534.843 74.397c-0.203-0.215-0.401-0.433-0.611-0.643l-0.002-0.002c-5.838-5.839-13.535-8.755-21.23-8.751-7.695-0.004-15.392 2.913-21.23 8.751l-0.002 0.002c-0.21 0.21-0.409 0.428-0.611 0.643L269.768 295.801c-11.666 11.667-11.666 30.758 0 42.425l0.002 0.002z" p-id="2642"></path><path d="M931 483c-16.568 0-30 13.432-30 30l0.023 387.912c-0.016 0.031-0.065 0.083-0.023 0.088l-775.912 0.023c-0.032-0.016-0.083-0.066-0.088-0.036V513c0-16.568-13.432-30-30-30s-30 13.432-30 30v388c0 33.084 26.916 60 60 60h776c33.084 0 60-26.916 60-60V513c0-16.568-13.432-30-30-30z" p-id="2643"></path></svg>